<mxfile host="65bd71144e">
    <diagram id="v4z63DKLenMOLERcfyxD" name="第 1 页">
        <mxGraphModel dx="1177" dy="572" grid="1" gridSize="10" guides="1" tooltips="1" connect="1" arrows="1" fold="1" page="1" pageScale="1" pageWidth="827" pageHeight="1169" math="0" shadow="0">
            <root>
                <mxCell id="0"/>
                <mxCell id="1" parent="0"/>
                <mxCell id="2" value="&lt;div style=&quot;background-color: rgb(255, 255, 255); font-family: Consolas, &amp;quot;Courier New&amp;quot;, monospace; font-size: 25px; line-height: 34px;&quot;&gt;&lt;div&gt;&lt;span style=&quot;color: #a31515;&quot;&gt;&quot;李元修&quot;&lt;/span&gt;,&lt;/div&gt;&lt;div&gt;&lt;span style=&quot;color: #a31515;&quot;&gt;&quot;李建国&quot;&lt;/span&gt;,&lt;/div&gt;&lt;div&gt;&lt;span style=&quot;color: #a31515;&quot;&gt;&quot;白敬亭&quot;&lt;/span&gt;, &lt;/div&gt;&lt;div&gt;&lt;span style=&quot;color: #a31515;&quot;&gt;&quot;莫怀雨&quot;&lt;/span&gt;, &lt;/div&gt;&lt;div&gt;&lt;span style=&quot;color: #a31515;&quot;&gt;&quot;谢起云&quot;&lt;/span&gt;, &lt;/div&gt;&lt;div&gt;&lt;span style=&quot;color: #a31515;&quot;&gt;&quot;夏亭晚&quot;&lt;/span&gt;, &lt;/div&gt;&lt;div&gt;&lt;span style=&quot;color: #a31515;&quot;&gt;&quot;徐时芳&quot;&lt;/span&gt;, &lt;/div&gt;&lt;div&gt;&lt;span style=&quot;color: #a31515;&quot;&gt;&quot;李清安&quot;&lt;/span&gt;, &lt;/div&gt;&lt;div&gt;&lt;span style=&quot;color: #a31515;&quot;&gt;&quot;李元斐&quot;&lt;/span&gt;, &lt;/div&gt;&lt;div&gt;&lt;span style=&quot;color: #a31515;&quot;&gt;&quot;李拥军&quot;&lt;/span&gt;&lt;/div&gt;&lt;/div&gt;" style="whiteSpace=wrap;html=1;" vertex="1" parent="1">
                    <mxGeometry x="80" y="300" width="120" height="400" as="geometry"/>
                </mxCell>
                <mxCell id="3" value="&lt;font style=&quot;font-size: 36px;&quot;&gt;filter&lt;/font&gt;" style="ellipse;whiteSpace=wrap;html=1;" vertex="1" parent="1">
                    <mxGeometry x="334" y="440" width="80" height="80" as="geometry"/>
                </mxCell>
                <mxCell id="4" value="" style="endArrow=classic;html=1;fontSize=36;" edge="1" parent="1" target="3">
                    <mxGeometry width="50" height="50" relative="1" as="geometry">
                        <mxPoint x="210" y="340" as="sourcePoint"/>
                        <mxPoint x="320" y="310" as="targetPoint"/>
                    </mxGeometry>
                </mxCell>
                <mxCell id="5" value="过滤规则" style="rhombus;whiteSpace=wrap;html=1;fontSize=36;" vertex="1" parent="1">
                    <mxGeometry x="470" y="400" width="240" height="160" as="geometry"/>
                </mxCell>
                <mxCell id="6" value="&lt;div style=&quot;background-color: rgb(255, 255, 255); font-family: Consolas, &amp;quot;Courier New&amp;quot;, monospace; font-size: 25px; line-height: 34px;&quot;&gt;&amp;nbsp;x.startswith(&lt;span style=&quot;color: #a31515;&quot;&gt;&quot;李&quot;&lt;/span&gt;)&lt;/div&gt;" style="text;html=1;align=center;verticalAlign=middle;resizable=0;points=[];autosize=1;strokeColor=none;fillColor=none;fontSize=36;" vertex="1" parent="1">
                    <mxGeometry x="470" y="555" width="280" height="50" as="geometry"/>
                </mxCell>
                <mxCell id="7" value="" style="endArrow=classic;html=1;fontSize=36;exitX=1;exitY=0.5;exitDx=0;exitDy=0;" edge="1" parent="1" source="3">
                    <mxGeometry width="50" height="50" relative="1" as="geometry">
                        <mxPoint x="380" y="600" as="sourcePoint"/>
                        <mxPoint x="460" y="480" as="targetPoint"/>
                    </mxGeometry>
                </mxCell>
                <mxCell id="8" value="" style="endArrow=classic;html=1;fontSize=36;" edge="1" parent="1">
                    <mxGeometry width="50" height="50" relative="1" as="geometry">
                        <mxPoint x="720" y="480" as="sourcePoint"/>
                        <mxPoint x="890" y="380" as="targetPoint"/>
                    </mxGeometry>
                </mxCell>
                <mxCell id="9" value="True" style="text;html=1;align=center;verticalAlign=middle;resizable=0;points=[];autosize=1;strokeColor=none;fillColor=none;fontSize=36;" vertex="1" parent="1">
                    <mxGeometry x="750" y="360" width="100" height="60" as="geometry"/>
                </mxCell>
                <mxCell id="10" value="保留这个元素" style="text;html=1;align=center;verticalAlign=middle;resizable=0;points=[];autosize=1;strokeColor=none;fillColor=none;fontSize=36;" vertex="1" parent="1">
                    <mxGeometry x="890" y="340" width="240" height="60" as="geometry"/>
                </mxCell>
                <mxCell id="11" value="" style="endArrow=classic;html=1;fontSize=36;" edge="1" parent="1">
                    <mxGeometry width="50" height="50" relative="1" as="geometry">
                        <mxPoint x="210" y="420" as="sourcePoint"/>
                        <mxPoint x="330" y="480" as="targetPoint"/>
                    </mxGeometry>
                </mxCell>
                <mxCell id="12" value="" style="endArrow=classic;html=1;fontSize=36;" edge="1" parent="1">
                    <mxGeometry width="50" height="50" relative="1" as="geometry">
                        <mxPoint x="730" y="490" as="sourcePoint"/>
                        <mxPoint x="900" y="500" as="targetPoint"/>
                    </mxGeometry>
                </mxCell>
                <mxCell id="13" value="False" style="text;html=1;align=center;verticalAlign=middle;resizable=0;points=[];autosize=1;strokeColor=none;fillColor=none;fontSize=36;" vertex="1" parent="1">
                    <mxGeometry x="745" y="480" width="110" height="60" as="geometry"/>
                </mxCell>
                <mxCell id="14" value="过滤掉了这个元素" style="text;html=1;align=center;verticalAlign=middle;resizable=0;points=[];autosize=1;strokeColor=none;fillColor=none;fontSize=36;" vertex="1" parent="1">
                    <mxGeometry x="900" y="470" width="310" height="60" as="geometry"/>
                </mxCell>
            </root>
        </mxGraphModel>
    </diagram>
</mxfile>